<svg xmlns="http://www.w3.org/2000/svg" width="568" height="568" style="shape-rendering:geometricPrecision;text-rendering:geometricPrecision;image-rendering:optimizeQuality;fill-rule:evenodd;clip-rule:evenodd"><path style="opacity:.967" fill="#176534" d="M567.5 257.5v58c-14.862 102.828-68.529 178.328-161 226.5a517.526 517.526 0 0 1-41 16 2021.705 2021.705 0 0 1-40 9.5h-84C137.823 548.352 63.99 490.686 20 394.5c-10.113-25.502-16.946-51.502-20.5-78v-65C13.093 160.217 59.093 89.717 137.5 40c77.859-44.736 159.526-52.069 245-22C480.86 58.33 541.36 130.163 564 233.5c1.14 8.151 2.307 16.151 3.5 24Z"/><path style="opacity:1" fill="#4d9043" d="M294.5 545.5a291.452 291.452 0 0 1 43-38 764.079 764.079 0 0 1 41.5-39c.499-4.989.666-9.989.5-15 2.619.268 5.119-.065 7.5-1a114.43 114.43 0 0 1 17-19 77.65 77.65 0 0 1 11-17 673.833 673.833 0 0 0 4-47 92.933 92.933 0 0 1-6-18c-.383-.556-.883-.889-1.5-1v-36c1.651-4.433 2.817-9.099 3.5-14 3.677-4.844 6.51-10.177 8.5-16a11.38 11.38 0 0 1 2.5-2 85.374 85.374 0 0 0 .5-27c-2.918-1.419-4.418-3.752-4.5-7a31.84 31.84 0 0 1-4.5-5 182.078 182.078 0 0 1-.5-33c2.337-10.356 4.671-20.69 7-31l2-2c1.116-11.399 3.283-22.399 6.5-33a51.22 51.22 0 0 1 2.5-4 914.798 914.798 0 0 1 6.5-29 174.494 174.494 0 0 0 2-28 8.435 8.435 0 0 0-4 .5c-11.58 17.8-27.58 29.8-48 36l-3.5 3.5a2907.253 2907.253 0 0 1-3.5 22 31.646 31.646 0 0 0-9-4.5c-2.266-2.755-5.266-4.088-9-4l-2-2c-6.235-.636-11.902-2.636-17-6a32.462 32.462 0 0 0-8-.5c-.163-2.357.003-4.69.5-7a63.726 63.726 0 0 1 9-10c.749-1.135.583-2.135-.5-3a91.091 91.091 0 0 1-19-9.5c-14.509-12.575-26.509-27.075-36-43.5-7.411-2.382-13.911-1.048-19.5 4-11.531 21.535-28.198 37.535-50 48-.667 1.667-.667 3.333 0 5a52.17 52.17 0 0 1 7 10c.743 1.941.576 3.774-.5 5.5-9.656 3.582-19.656 6.249-30 8-4.993 2.973-9.66 6.139-14 9.5-2.422-7.716-3.589-15.716-3.5-24a102.993 102.993 0 0 0-12.5-4.5c-2.2-2.046-4.867-3.046-8-3-12.753-6.419-22.587-15.919-29.5-28.5a55.05 55.05 0 0 0-6.5-6 28.717 28.717 0 0 0-.5 13 121.402 121.402 0 0 1 3.5 16.5c3.438 8.434 5.438 17.267 6 26.5a429.21 429.21 0 0 0 7 28c4.781 13.406 7.448 27.406 8 42h3c.167 13.004 0 26.004-.5 39a78.664 78.664 0 0 1-9 12c-2.392 12.47-.392 24.136 6 35 .497 2.31.663 4.643.5 7 3.388.374 5.222 2.374 5.5 6l1 11 3 3a121.19 121.19 0 0 1 0 22 448.715 448.715 0 0 1-9 19c-1.594 7.809.406 14.475 6 20 .674 5.27.174 10.436-1.5 15.5a14.489 14.489 0 0 1-4.5 4.5c-.857 3.051-.19 5.717 2 8a241.166 241.166 0 0 1 18 19 8.43 8.43 0 0 1 .5 4c4.954.462 7.621 3.128 8 8 5.097 1.81 8.93 5.144 11.5 10l1 20a1199.316 1199.316 0 0 1 41.5 40.5c16.019 11.179 30.686 24.012 44 38.5-2.31.664-4.81.997-7.5 1-90.164-6.401-160.164-47.068-210-122-46.439-77.021-53.772-157.687-22-242C74.772 102.388 136.605 49.888 223.5 27 325.02 7.953 411.186 35.786 482 110.5c59.435 71.118 78.435 152.118 57 243C506.781 455.723 438.614 519.223 334.5 544a183.74 183.74 0 0 1-42 4c.881-.708 1.547-1.542 2-2.5Z"/><path style="opacity:1" fill="#010301" d="M441.5 111.5c-1.29.558-2.123 1.558-2.5 3a811.738 811.738 0 0 0-6.5 30c-3.217 10.601-5.384 21.601-6.5 33l-2 2c-2.329 10.31-4.663 20.644-7 31a182.078 182.078 0 0 0 .5 33 31.84 31.84 0 0 0 4.5 5c.082 3.248 1.582 5.581 4.5 7a85.374 85.374 0 0 1-.5 27 11.38 11.38 0 0 0-2.5 2c-1.99 5.823-4.823 11.156-8.5 16-.683 4.901-1.849 9.567-3.5 14-.722.418-1.222 1.084-1.5 2l-.5 14.5c-.22 6.746.446 13.246 2 19.5.617.111 1.117.444 1.5 1a92.933 92.933 0 0 0 6 18 673.833 673.833 0 0 1-4 47 77.65 77.65 0 0 0-11 17 114.43 114.43 0 0 0-17 19c-2.381.935-4.881 1.268-7.5 1a112.97 112.97 0 0 1-.5 15 764.079 764.079 0 0 0-41.5 39 291.452 291.452 0 0 0-43 38c-2.848 1.995-6.014 3.328-9.5 4-2.775.091-5.275-.576-7.5-2-13.314-14.488-27.981-27.321-44-38.5a1199.316 1199.316 0 0 0-41.5-40.5l-1-20c-2.57-4.856-6.403-8.19-11.5-10-.379-4.872-3.046-7.538-8-8a8.43 8.43 0 0 0-.5-4 241.166 241.166 0 0 0-18-19c-2.19-2.283-2.857-4.949-2-8a14.489 14.489 0 0 0 4.5-4.5c1.674-5.064 2.174-10.23 1.5-15.5-5.594-5.525-7.594-12.191-6-20a448.715 448.715 0 0 0 9-19 121.19 121.19 0 0 0 0-22l-3-3-1-11c-.278-3.626-2.112-5.626-5.5-6a24.935 24.935 0 0 0-.5-7c-6.392-10.864-8.392-22.53-6-35a78.664 78.664 0 0 0 9-12c.5-12.996.667-25.996.5-39h-3c-.552-14.594-3.219-28.594-8-42a207.707 207.707 0 0 0-4.5-25 81.316 81.316 0 0 0-2.5-3c-.562-9.233-2.562-18.066-6-26.5a121.402 121.402 0 0 0-3.5-16.5 28.717 28.717 0 0 1 .5-13 55.05 55.05 0 0 1 6.5 6c6.913 12.581 16.747 22.081 29.5 28.5 3.133-.046 5.8.954 8 3a102.993 102.993 0 0 1 12.5 4.5c-.089 8.284 1.078 16.284 3.5 24 4.34-3.361 9.007-6.527 14-9.5 10.344-1.751 20.344-4.418 30-8 1.076-1.726 1.243-3.559.5-5.5a52.17 52.17 0 0 0-7-10c-.667-1.667-.667-3.333 0-5 21.802-10.465 38.469-26.465 50-48 5.589-5.048 12.089-6.382 19.5-4 9.491 16.425 21.491 30.925 36 43.5a91.091 91.091 0 0 0 19 9.5c1.083.865 1.249 1.865.5 3a63.726 63.726 0 0 0-9 10 24.935 24.935 0 0 0-.5 7 32.462 32.462 0 0 1 8 .5c5.098 3.364 10.765 5.364 17 6l2 2c3.734-.088 6.734 1.245 9 4a31.646 31.646 0 0 1 9 4.5 2907.253 2907.253 0 0 0 3.5-22l3.5-3.5c20.42-6.2 36.42-18.2 48-36a8.435 8.435 0 0 1 4-.5 174.494 174.494 0 0 1-2 28Z"/><path style="opacity:1" fill="#4b8c42" d="m356.5 184.5-10-2a2484.346 2484.346 0 0 0-122-.5c-1.237.232-2.237.732-3 1.5-10.004.125-19.671 1.958-29 5.5a28.717 28.717 0 0 1-13-.5 520.333 520.333 0 0 1-15-60c5.548-.957 8.715 1.377 9.5 7-.969 20.7 8.531 33.867 28.5 39.5 20.401 1.93 33.568-6.903 39.5-26.5 2.781-11.087 1.781-21.754-3-32-.667-1.333-.667-2.667 0-4A192.305 192.305 0 0 0 264.5 98c4.224-1.45 6.724.05 7.5 4.5a2427.626 2427.626 0 0 0 11 50c.414.457.914.791 1.5 1 .734-29.006 1.401-58.006 2-87 2.544.968 4.711 2.635 6.5 5 10.206 15.876 22.873 29.542 38 41-.684 5.741-2.017 11.407-4 17-.667 7-.667 14 0 21 4.331 10.336 11.498 18.169 21.5 23.5 23.586 5.293 39.753-3.207 48.5-25.5 3.406-4.963 7.906-6.629 13.5-5a2027.05 2027.05 0 0 1-14 48c-1.921 1.141-3.921 1.308-6 .5a656.858 656.858 0 0 0-34-7.5Z"/><path style="opacity:1" fill="#2c5226" d="M441.5 111.5a914.798 914.798 0 0 0-6.5 29 51.22 51.22 0 0 0-2.5 4 811.738 811.738 0 0 1 6.5-30c.377-1.442 1.21-2.442 2.5-3Z"/><path style="opacity:1" fill="#2b5026" d="M135.5 135.5a81.316 81.316 0 0 1 2.5 3 207.707 207.707 0 0 1 4.5 25 429.21 429.21 0 0 1-7-28Z"/><path style="opacity:1" fill="#396a31" d="M346.5 182.5c-39.17-.332-78.17.001-117 1h-8c.763-.768 1.763-1.268 3-1.5 40.835-.831 81.502-.665 122 .5Z"/><path style="opacity:1" fill="#132211" d="M229.5 183.5a3421.39 3421.39 0 0 1 117-1l10 2a4712.08 4712.08 0 0 0-127-1Z"/><path style="opacity:1" fill="#23421f" d="M353.5 196.5c-.291-1.149-1.124-1.816-2.5-2a152.043 152.043 0 0 0-11.5-1.5 2411.78 2411.78 0 0 0-116 .5c1.109-.79 2.442-1.29 4-1.5a3479.51 3479.51 0 0 1 118 0 30.465 30.465 0 0 0 9 1.5c.237 1.291-.096 2.291-1 3Z"/><path style="opacity:1" fill="#4c8e42" d="M353.5 196.5a518.187 518.187 0 0 1-47 24 4004.236 4004.236 0 0 1-68 2.5 145.487 145.487 0 0 0-24.5-11.5 25.716 25.716 0 0 0-5.5 1.5 217.678 217.678 0 0 1-14 11.5 5.576 5.576 0 0 0-3 1 74.079 74.079 0 0 1-.5-21c.904-2.733 2.404-5.067 4.5-7 8.915-3.274 18.248-4.607 28-4a2411.78 2411.78 0 0 1 116-.5c3.854.354 7.688.854 11.5 1.5 1.376.184 2.209.851 2.5 2Z"/><path style="opacity:1" fill="#2c5226" d="M195.5 197.5c-2.096 1.933-3.596 4.267-4.5 7a74.079 74.079 0 0 0 .5 21 5.576 5.576 0 0 1 3-1c-.906 1.465-2.239 2.465-4 3a84.495 84.495 0 0 1 0-25.5c.899-2.401 2.566-3.901 5-4.5Z"/><path style="opacity:1" fill="#4b8b41" d="M354.5 224.5c7.551 1.679 13.385 6.012 17.5 13a112.862 112.862 0 0 1 3.5 23c-8.315 2.338-11.982-.662-11-9-2.427.023-4.76.523-7 1.5a1188.16 1188.16 0 0 1-41 21 78.606 78.606 0 0 1-17 3.5c-1.847 2.702-3.013 5.702-3.5 9 .891 9.114-1.609 17.114-7.5 24-5.591.942-9.424-1.392-11.5-7a119.597 119.597 0 0 1-2-16c-.654-4.142-2.487-7.642-5.5-10.5a84.519 84.519 0 0 1-16-2 1589.95 1589.95 0 0 0-48-23.5 12.992 12.992 0 0 0 1 5.5c-.259 1.261-.926 2.261-2 3-3.526 1.337-7.192 1.837-11 1.5-.463-10.482 2.037-20.149 7.5-29 3.947-6.394 9.447-8.394 16.5-6 7.47 3.301 13.97 7.968 19.5 14a90.04 90.04 0 0 0 12.5 15 25.879 25.879 0 0 0 1-10 3732.772 3732.772 0 0 1 35.5 18 1131.378 1131.378 0 0 0 27.5-16.5 10.098 10.098 0 0 1 6-1.5 61.568 61.568 0 0 0 2 10c8.804-12.808 19.804-23.141 33-31Z"/><path style="opacity:1" fill="#4b8b41" d="M359.5 306.5a494.878 494.878 0 0 1-46 0c-2.073-4.775-2.739-9.775-2-15a19.887 19.887 0 0 1 4 3.5c2.309.756 4.309.256 6-1.5 2.163 2.28 4.83 3.614 8 4a346.295 346.295 0 0 0 31-16.5c10.311-2.86 19.811-1.36 28.5 4.5 4.311 9.864 6.478 20.197 6.5 31a50.464 50.464 0 0 1-10-.5c-8.218-4.619-16.885-7.785-26-9.5Z"/><path style="opacity:1" fill="#4b8c41" d="M193.5 278.5c3.35-.165 6.683.002 10 .5 2.992 2.11 6.325 3.443 10 4 4.883 4.61 10.55 7.944 17 10a55.824 55.824 0 0 0 16 1.5v5c3.631-1.108 6.631-3.274 9-6.5a4.934 4.934 0 0 1 3-.5c.672 6.639-.328 12.972-3 19-6.687 4.899-14.187 8.232-22.5 10a11.896 11.896 0 0 1-5-3c-3.929 4.6-6.429 9.934-7.5 16-3.394.723-6.728.223-10-1.5-10.461-4.999-20.461-10.332-30-16a48.36 48.36 0 0 1-8-8.5c-1.284-6.328.216-11.995 4.5-17 4.166-6.15 9.666-10.483 16.5-13Z"/><path style="opacity:1" fill="#335f2d" d="M359.5 306.5a2829.16 2829.16 0 0 1-37.5 3l-7.5-1a43.836 43.836 0 0 1-1-2c15.488.713 30.822.713 46 0Z"/><path style="opacity:1" fill="#294c24" d="M362.5 325.5c-10.333-2.667-20.667-2.667-31 0 .847-1.466 2.18-2.3 4-2.5a132.434 132.434 0 0 1 23 0c1.82.2 3.153 1.034 4 2.5Z"/><path style="opacity:1" fill="#4c8e42" d="M362.5 325.5c1.97.662 3.97 1.328 6 2a450.576 450.576 0 0 0 20.5 15 508.336 508.336 0 0 0 11.5 28 8.43 8.43 0 0 0-4 .5c5.698 9.74 7.531 20.24 5.5 31.5-5.175 24.677-20.342 36.343-45.5 35 .612 7.885-.221 15.552-2.5 23a372.616 372.616 0 0 1-31.5 33.5 617.203 617.203 0 0 1-38 34.5 2188.233 2188.233 0 0 0-70.5-66 288.19 288.19 0 0 1 1-24c.082-4.719.915-9.219 2.5-13.5l-1-2.5a134.072 134.072 0 0 0-10 9.5c-1 .667-2 .667-3 0a275.599 275.599 0 0 1-29-33.5c4.351-8.731 6.684-18.064 7-28h-6a32.462 32.462 0 0 1 .5-8 129.142 129.142 0 0 0 6-24 4.933 4.933 0 0 1 2.5-1c4.453 3.56 9.453 6.06 15 7.5a300.365 300.365 0 0 0 13.5 9.5c4.845 7.017 8.012 14.684 9.5 23 1.624.14 2.79-.527 3.5-2 1.382-8.669 3.715-17.003 7-25 11.559-6.963 23.893-11.963 37-15 4.276 1.252 8.109 3.418 11.5 6.5 2 .667 4 .667 6 0 6.562-5.748 14.229-8.081 23-7a69.162 69.162 0 0 0 17-9 8.43 8.43 0 0 1 4-.5c10.333-2.667 20.667-2.667 31 0Z"/><path style="opacity:1" fill="#335e2c" d="M411.5 314.5v36c-1.554-6.254-2.22-12.754-2-19.5l.5-14.5c.278-.916.778-1.582 1.5-2Z"/><path style="opacity:1" fill="#030703" d="M276.5 369.5c15.023-.406 29.689 1.594 44 6l1 1.5c-6.652 12.217-6.652 24.384 0 36.5-3.721 1.686-6.887 1.019-9.5-2-3.852-6.227-6.518-12.894-8-20-4.758-4.67-10.591-6.67-17.5-6-7.18-.038-13.846 1.795-20 5.5a59.934 59.934 0 0 0-7.5 14.5 17.758 17.758 0 0 0-1.5 7h-3a883.606 883.606 0 0 1-2-36c8.341-1.563 16.341-3.896 24-7Z"/><path style="opacity:1" fill="#040903" d="M257.5 453.5a338.198 338.198 0 0 1 14 4.5c12.735.957 25.402.457 38-1.5l3 1a1124.098 1124.098 0 0 0-24.5 12c-.684 1.284-.517 2.451.5 3.5a108.958 108.958 0 0 0 9 4c-19.655 2.68-32.988-5.153-40-23.5Z"/></svg>